<svg xml:space="preserve" xmlns="http://www.w3.org/2000/svg" fill-rule="evenodd" clip-rule="evenodd" stroke-linejoin="round" stroke-miterlimit="2" viewBox="0 0 32 32"><path d="M14 27h3v1.131a2 2 0 0 0 3.109 1.665l6.198-4.132a2 2 0 0 0 0-3.328l-6.198-4.132A2 2 0 0 0 17 19.868V21h-3c-1.634 0-3-1.366-3-3a1 1 0 0 0-1-1H6a1 1 0 0 0-1 1c0 4.903 4.097 9 9 9Zm4-22h-3V3.869a2 2 0 0 0-3.11-1.665L5.693 6.336a1.998 1.998 0 0 0 0 3.328l6.197 4.132A2 2 0 0 0 15 12.132V11h3c1.634 0 3 1.366 3 3a1 1 0 0 0 1 1h4c.551 0 1-.448 1-1 0-4.903-4.098-9-9-9Z" fill="#e0e0e0" class="fill-000000"></path></svg>